<?xml version="1.0" standalone="no"?>
<!DOCTYPE svg PUBLIC "-//W3C//DTD SVG 20010904//EN"
 "http://www.w3.org/TR/2001/REC-SVG-20010904/DTD/svg10.dtd">
<svg version="1.0" xmlns="http://www.w3.org/2000/svg"
 width="96.000000pt" height="96.000000pt" viewBox="0 0 96.000000 96.000000"
 preserveAspectRatio="xMidYMid meet">

<g transform="translate(0.000000,96.000000) scale(0.100000,-0.100000)"
fill="#000000" stroke="none">
<path d="M405 950 c-182 -32 -322 -153 -378 -325 -26 -81 -26 -209 0 -290 65
-200 240 -327 453 -327 270 0 472 202 472 472 0 173 -77 314 -225 407 -83 53
-223 80 -322 63z m190 -245 c114 -46 168 -187 116 -302 -32 -70 -110 -95 -155
-50 l-23 23 -27 -23 c-40 -34 -101 -27 -133 16 -48 65 3 207 80 227 33 8 71
-1 91 -22 15 -14 16 -14 16 0 0 11 9 16 26 16 23 0 25 -3 20 -27 -18 -88 -27
-165 -22 -178 8 -22 44 -18 70 8 45 46 42 161 -6 222 -63 80 -226 87 -306 12
-43 -40 -65 -96 -65 -169 0 -78 22 -128 75 -171 60 -49 194 -53 257 -8 29 21
71 28 71 13 0 -13 -41 -47 -80 -68 -26 -14 -56 -19 -115 -19 -94 0 -143 21
-197 85 -96 111 -72 309 47 389 72 49 180 60 260 26z"/>
<path d="M449 545 c-47 -25 -66 -126 -31 -158 40 -37 104 -4 122 63 23 86 -22
132 -91 95z"/>
</g>
</svg>
